<?xml version="1.0" standalone="no"?>
<!DOCTYPE svg PUBLIC "-//W3C//DTD SVG 20010904//EN"
 "http://www.w3.org/TR/2001/REC-SVG-20010904/DTD/svg10.dtd">
<svg version="1.0" xmlns="http://www.w3.org/2000/svg"
 width="537.000000pt" height="96.000000pt" viewBox="0 0 537.000000 96.000000"
 preserveAspectRatio="xMidYMid meet">

<g transform="translate(0.000000,96.000000) scale(0.100000,-0.100000)"
fill="#000000" stroke="none">
<path d="M173 940 c-46 -27 -49 -36 -69 -175 -2 -16 -11 -69 -20 -117 -19
-100 -15 -128 23 -145 38 -18 52 -16 25 3 -16 11 -22 25 -22 53 0 69 10 101
34 102 18 1 18 2 3 6 -16 4 -18 12 -12 56 19 154 26 176 61 207 39 34 26 40
-23 10z"/>
<path d="M1426 819 c-15 -78 -25 -143 -23 -145 2 -2 17 -6 33 -8 16 -2 23 -1
17 1 -7 2 -13 12 -13 21 0 15 33 195 45 250 4 17 1 22 -14 22 -16 0 -22 -19
-45 -141z"/>
<path d="M2106 948 c-7 -21 -45 -273 -42 -275 1 -2 16 -5 32 -7 16 -2 23 -1
17 1 -16 5 -17 -10 7 130 24 143 25 163 5 163 -9 0 -17 -6 -19 -12z"/>
<path d="M2756 938 c-17 -80 -26 -132 -26 -148 0 -25 27 -26 34 -2 6 20 26
141 26 160 0 21 -29 13 -34 -10z"/>
<path d="M3127 869 c-9 -51 -14 -95 -12 -99 3 -5 1 -10 -4 -12 -5 -1 -12 -22
-16 -45 -6 -38 -5 -43 12 -43 17 0 23 16 42 125 13 69 25 134 28 145 4 15 0
20 -14 20 -17 0 -22 -13 -36 -91z"/>
<path d="M3415 948 c-2 -7 -9 -42 -15 -78 -6 -36 -13 -73 -16 -82 -4 -13 0
-18 15 -18 12 0 21 2 21 4 0 2 7 40 15 83 19 97 19 103 0 103 -9 0 -18 -6 -20
-12z"/>
<path d="M4070 953 c0 -12 -20 -135 -25 -160 -4 -18 -1 -23 14 -23 16 0 21 11
31 73 6 39 13 82 16 95 3 17 0 22 -16 22 -11 0 -20 -3 -20 -7z"/>
<path d="M4712 913 c-6 -27 -14 -70 -17 -96 -7 -44 -6 -49 11 -45 14 2 21 19
30 73 17 95 17 115 0 115 -9 0 -18 -18 -24 -47z"/>
<path d="M814 932 c-20 -15 -44 -52 -44 -66 0 -3 9 -6 20 -6 12 0 20 7 20 16
0 8 13 29 29 45 22 22 25 29 13 29 -9 0 -27 -8 -38 -18z"/>
<path d="M570 850 c0 -5 9 -10 20 -10 11 0 20 5 20 10 0 6 -9 10 -20 10 -11 0
-20 -4 -20 -10z"/>
<path d="M650 850 c0 -5 9 -10 20 -10 11 0 20 5 20 10 0 6 -9 10 -20 10 -11 0
-20 -4 -20 -10z"/>
<path d="M765 828 c-11 -36 -77 -440 -72 -445 15 -15 35 10 40 51 4 25 14 86
23 136 14 76 19 90 38 93 21 4 21 4 0 6 -20 1 -21 3 -8 69 7 37 13 75 14 85 0
19 -28 24 -35 5z"/>
<path d="M1118 628 c-41 -214 -43 -238 -25 -238 19 0 22 9 42 135 21 130 22
133 48 138 l22 4 -23 2 c-18 1 -21 5 -17 26 3 14 7 36 10 50 4 19 1 25 -12 25
-16 0 -23 -22 -45 -142z"/>
<path d="M1777 633 c-13 -76 -25 -151 -26 -166 0 -16 -7 -52 -15 -80 -8 -29
-18 -74 -22 -100 -6 -44 -5 -49 12 -45 10 2 20 12 22 23 1 11 11 61 22 110 10
50 24 129 30 176 13 95 17 105 45 112 17 4 17 5 -4 6 -20 1 -22 5 -17 26 3 14
9 36 12 50 5 20 2 25 -14 25 -18 0 -23 -15 -45 -137z"/>
<path d="M2588 763 c6 -2 18 -2 25 0 6 3 1 5 -13 5 -14 0 -19 -2 -12 -5z"/>
<path d="M2858 763 c6 -2 18 -2 25 0 6 3 1 5 -13 5 -14 0 -19 -2 -12 -5z"/>
<path d="M3248 763 c6 -2 18 -2 25 0 6 3 1 5 -13 5 -14 0 -19 -2 -12 -5z"/>
<path d="M3518 763 c6 -2 18 -2 25 0 6 3 1 5 -13 5 -14 0 -19 -2 -12 -5z"/>
<path d="M3775 762 c-5 -4 -12 -14 -13 -22 -14 -60 -35 -176 -42 -235 -7 -59
-24 -147 -45 -242 -4 -18 -1 -23 14 -23 15 0 22 9 26 37 3 21 13 66 21 100 7
34 14 72 14 84 0 11 7 61 16 110 15 78 19 89 38 90 18 1 18 2 3 6 -16 4 -18
11 -12 54 7 47 2 57 -20 41z"/>
<path d="M3918 763 c7 -3 16 -2 19 1 4 3 -2 6 -13 5 -11 0 -14 -3 -6 -6z"/>
<path d="M4178 763 c6 -2 18 -2 25 0 6 3 1 5 -13 5 -14 0 -19 -2 -12 -5z"/>
<path d="M4828 763 c6 -2 18 -2 25 0 6 3 1 5 -13 5 -14 0 -19 -2 -12 -5z"/>
<path d="M5208 763 c6 -2 18 -2 25 0 6 3 1 5 -13 5 -14 0 -19 -2 -12 -5z"/>
<path d="M2705 668 c-38 -207 -47 -254 -51 -270 -4 -13 0 -18 15 -18 20 0 19
-5 51 165 21 113 21 114 43 118 l22 4 -21 2 c-20 1 -21 4 -13 39 12 51 12 52
-10 52 -16 0 -21 -15 -36 -92z"/>
<path d="M3375 733 c-4 -16 -8 -36 -10 -45 -1 -9 5 -19 14 -21 14 -4 14 -5 -1
-6 -10 0 -18 -3 -18 -4 0 -2 -11 -64 -25 -138 -14 -74 -25 -135 -25 -136 0 -2
9 -3 20 -3 11 0 20 6 20 13 0 6 11 68 24 137 21 114 25 125 47 131 23 7 23 7
2 8 -26 1 -26 2 -14 54 8 33 7 37 -10 37 -12 0 -21 -9 -24 -27z"/>
<path d="M4033 715 c-9 -41 -8 -44 11 -48 21 -4 21 -4 -1 -6 -25 -1 -23 6 -59
-206 -14 -82 -28 -165 -31 -184 -5 -28 -3 -33 13 -29 16 3 23 32 54 208 34
195 37 205 61 211 24 7 24 7 1 8 -17 1 -22 6 -19 19 18 63 18 72 -1 72 -14 0
-21 -12 -29 -45z"/>
<path d="M4866 738 c-8 -36 -25 -130 -30 -168 -3 -19 -17 -98 -31 -174 -14
-76 -24 -145 -21 -152 3 -8 1 -14 -4 -14 -23 0 -6 -31 61 -110 76 -90 89 -101
89 -76 0 8 -27 46 -60 84 -55 64 -74 102 -51 102 5 0 7 8 4 18 -3 15 70 462
82 500 3 7 -4 12 -15 12 -12 0 -21 -9 -24 -22z"/>
<path d="M1372 533 c-26 -150 -26 -153 -7 -153 17 0 18 5 45 154 24 133 24
126 2 126 -15 0 -21 -21 -40 -127z"/>
<path d="M2031 524 c-12 -74 -20 -138 -17 -141 18 -19 33 15 50 113 10 60 20
121 23 137 4 22 2 27 -13 27 -17 0 -22 -17 -43 -136z"/>
<path d="M436 478 c-3 -7 -7 -32 -10 -55 -5 -34 -3 -43 8 -43 20 0 25 10 32
64 6 39 4 46 -10 46 -9 0 -18 -6 -20 -12z"/>
<path d="M3031 367 c-25 -137 -25 -127 -3 -127 16 0 21 16 36 98 9 54 19 108
23 120 4 17 1 22 -15 22 -17 0 -22 -14 -41 -113z"/>
<path d="M19 290 c-15 -85 -15 -90 2 -90 17 0 23 19 45 143 5 32 4 37 -13 37
-16 0 -21 -14 -34 -90z"/>
<path d="M110 370 c0 -5 9 -10 20 -10 11 0 20 5 20 10 0 6 -9 10 -20 10 -11 0
-20 -4 -20 -10z"/>
<path d="M765 370 c-3 -5 3 -10 14 -10 12 0 21 5 21 10 0 6 -6 10 -14 10 -8 0
-18 -4 -21 -10z"/>
<path d="M1420 370 c0 -5 9 -10 20 -10 11 0 20 5 20 10 0 6 -9 10 -20 10 -11
0 -20 -4 -20 -10z"/>
<path d="M1810 370 c0 -5 9 -10 20 -10 11 0 20 5 20 10 0 6 -9 10 -20 10 -11
0 -20 -4 -20 -10z"/>
<path d="M2085 370 c-3 -5 3 -10 14 -10 12 0 21 5 21 10 0 6 -6 10 -14 10 -8
0 -18 -4 -21 -10z"/>
<path d="M2730 370 c0 -5 9 -10 20 -10 11 0 20 5 20 10 0 6 -9 10 -20 10 -11
0 -20 -4 -20 -10z"/>
<path d="M3110 370 c0 -5 9 -10 20 -10 11 0 20 5 20 10 0 6 -9 10 -20 10 -11
0 -20 -4 -20 -10z"/>
<path d="M3390 370 c0 -5 6 -10 14 -10 8 0 18 5 21 10 3 6 -3 10 -14 10 -12 0
-21 -4 -21 -10z"/>
<path d="M3775 370 c-3 -5 3 -10 14 -10 12 0 21 5 21 10 0 6 -6 10 -14 10 -8
0 -18 -4 -21 -10z"/>
<path d="M676 323 c-3 -21 -6 -46 -6 -55 0 -22 34 -58 55 -58 14 0 13 3 -1 25
-13 19 -15 38 -11 75 5 44 4 50 -12 50 -13 0 -20 -10 -25 -37z"/>
<path d="M1336 330 c-3 -16 -9 -43 -12 -60 -5 -25 -2 -30 14 -30 16 0 21 11
29 60 9 54 8 60 -8 60 -11 0 -19 -10 -23 -30z"/>
<path d="M1995 318 c-3 -24 -9 -51 -11 -60 -4 -13 0 -18 14 -18 15 0 21 9 27
38 3 20 9 47 12 60 4 17 1 22 -15 22 -16 0 -22 -9 -27 -42z"/>
<path d="M2646 330 c-3 -16 -9 -43 -12 -60 -4 -23 -2 -30 10 -30 20 0 24 8 32
68 5 43 4 52 -9 52 -9 0 -18 -12 -21 -30z"/>
<path d="M3291 284 c-7 -42 -10 -78 -7 -81 14 -14 34 10 40 49 4 23 9 58 12
76 5 27 3 32 -13 32 -16 0 -21 -12 -32 -76z"/>
<path d="M1248 233 c6 -2 18 -2 25 0 6 3 1 5 -13 5 -14 0 -19 -2 -12 -5z"/>
<path d="M1518 233 c6 -2 18 -2 25 0 6 3 1 5 -13 5 -14 0 -19 -2 -12 -5z"/>
<path d="M1908 233 c6 -2 18 -2 25 0 6 3 1 5 -13 5 -14 0 -19 -2 -12 -5z"/>
<path d="M2178 233 c6 -2 18 -2 25 0 6 3 1 5 -13 5 -14 0 -19 -2 -12 -5z"/>
<path d="M2578 233 c7 -3 16 -2 19 1 4 3 -2 6 -13 5 -11 0 -14 -3 -6 -6z"/>
<path d="M2838 233 c6 -2 18 -2 25 0 6 3 1 5 -13 5 -14 0 -19 -2 -12 -5z"/>
<path d="M3488 233 c6 -2 18 -2 25 0 6 3 1 5 -13 5 -14 0 -19 -2 -12 -5z"/>
<path d="M3868 233 c6 -2 18 -2 25 0 6 3 1 5 -13 5 -14 0 -19 -2 -12 -5z"/>
<path d="M4148 233 c7 -3 16 -2 19 1 4 3 -2 6 -13 5 -11 0 -14 -3 -6 -6z"/>
<path d="M4538 233 c7 -3 16 -2 19 1 4 3 -2 6 -13 5 -11 0 -14 -3 -6 -6z"/>
<path d="M1317 223 c-13 -12 -7 -23 13 -23 11 0 20 7 20 15 0 15 -21 21 -33 8z"/>
<path d="M1700 214 c0 -17 129 -194 142 -194 20 0 4 34 -47 102 -30 40 -55 81
-55 90 0 11 -8 18 -20 18 -12 0 -20 -7 -20 -16z"/>
<path d="M1977 223 c-13 -12 -7 -23 13 -23 11 0 20 7 20 15 0 15 -21 21 -33 8z"/>
<path d="M2627 223 c-13 -12 -7 -23 13 -23 11 0 20 7 20 15 0 15 -21 21 -33 8z"/>
<path d="M3007 223 c-15 -14 -4 -33 64 -114 39 -46 72 -85 74 -87 1 -2 5 4 8
12 3 8 -19 43 -54 84 -32 39 -59 80 -59 91 0 20 -19 28 -33 14z"/>
<path d="M3670 211 c0 -10 30 -60 68 -110 52 -72 68 -87 70 -71 2 14 -17 48
-52 95 -35 46 -53 80 -50 90 4 10 0 15 -15 15 -14 0 -21 -6 -21 -19z"/>
<path d="M3940 214 c0 -9 7 -14 17 -12 25 5 28 28 4 28 -12 0 -21 -6 -21 -16z"/>
</g>
</svg>
